<svg class="hover:text-theme" height="27" viewBox="0 0 82 24" xmlns="http://www.w3.org/2000/svg"><g stroke="none" stroke-width="1" fill="none" fill-rule="evenodd"><g transform="translate(-679.000000, -20.000000)" fill="currentColor"><g id="032_Logo_Black-Copy-2" transform="translate(679.090909, 19.560241)"><path d="M9.87537613,0.439759036 C14.1657662,0.439759036 19.9090909,3.37199017 19.9090909,12.439759 C19.9090909,21.5075279 14.1657662,24.439759 9.90884482,24.439759 C5.65241563,24.439759 -0.0909090909,21.5075279 -0.0909090909,12.439759 C-0.0909090909,3.37199017 5.65241563,0.439759036 9.87537613,0.439759036 M9.87537613,19.2824501 C13.3206819,19.2824501 13.4899941,14.9339479 13.4899941,12.439759 C13.4899941,10.0128479 13.3206819,5.59706792 9.94280569,5.59706792 C6.46304686,5.59706792 6.32818775,9.9116857 6.32818775,12.439759 C6.32818775,14.9005546 6.46304686,19.2824501 9.87537613,19.2824501"></path><path d="M21.6077616,8.52963012 C21.6406734,5.76572589 22.7369274,3.74288979 24.4977096,2.39482349 C26.2584919,1.08015192 28.6504067,0.439759036 31.2417284,0.439759036 C37.9528353,0.439759036 40.1782549,4.48494013 40.1782549,6.47339931 C40.1782549,11.3947007 37.1218118,11.3947007 37.1218118,11.4963582 L37.1218118,11.5636387 C37.1218118,11.833252 40.9090909,11.833252 40.9090909,17.0580525 C40.9090909,19.9231231 38.7833747,24.439759 31.2083325,24.439759 C20.810618,24.439759 20.7767382,17.0246577 20.9432333,15.2714349 L27.2550424,15.2714349 C27.2216466,16.5188259 27.5212409,17.4627179 28.1523734,18.0697161 C28.7835059,18.84467 29.7466606,19.1142833 30.9097062,19.1142833 C32.8031037,19.1142833 33.9990611,18.4066099 33.9990611,16.4849401 C33.9990611,14.4287093 32.4376857,14.0579297 30.9097062,14.0579297 C29.9460675,14.0579297 29.4814301,14.1590961 28.9829128,14.2268677 L28.9829128,9.64196898 C29.4814301,9.6758548 30.0128592,9.77702116 30.9097062,9.77702116 C32.3050705,9.77702116 34.0653687,9.47352208 34.0653687,7.6535098 C34.0653687,6.16990023 32.4047739,5.59678789 31.0428055,5.59678789 C29.2486274,5.59678789 27.7869555,6.57456567 27.8532631,8.52963012 L21.6077616,8.52963012 Z"></path><path d="M42.3898689,10.7010592 C42.025353,4.18922191 45.9688838,0.439759036 52.1661366,0.439759036 C57.7666455,0.439759036 61.5774056,2.85984457 61.5774056,7.90578183 C61.5774056,13.9736749 55.8112954,15.8830281 51.4704182,18.6100441 L51.4704182,18.6444203 L61.9090909,18.6444203 L61.9090909,24.439759 L41.9258957,24.439759 C41.793125,22.1557051 42.4564956,20.1785817 43.5828738,18.5761589 C45.5049106,15.8147667 48.8188669,14.00756 51.7687901,12.1669592 C52.9613123,11.4170666 54.883349,10.46239 54.883349,8.72393575 C54.883349,6.57640449 53.6570307,5.82602083 52.0995098,5.82602083 C49.4484413,5.82602083 48.5542911,7.80363536 48.6199523,10.7010592 L42.3898689,10.7010592 Z"></path><path d="M75.2194029,13.3754947 C75.1505769,12.6821136 74.9094346,12.120576 74.4603072,11.7572847 C74.0473511,11.3939934 73.461074,11.1957471 72.7366425,11.1957471 C70.11623,11.1957471 69.7369333,13.3754947 69.7369333,15.4566004 C69.7369333,17.5367436 70.11623,19.683771 72.7366425,19.683771 C74.2196673,19.683771 75.2540671,18.5279755 75.3917191,17.1739335 L81.9090909,17.1739335 C81.2539878,21.8307984 77.4268593,24.439759 72.5984881,24.439759 C67.2195087,24.439759 62.9090909,20.8732492 62.9090909,15.4566004 C62.9090909,10.0399515 67.2195087,6.43975904 72.5984881,6.43975904 C77.2887049,6.43975904 81.2881496,8.65270814 81.7021105,13.3754947 L75.2194029,13.3754947 Z"></path></g></g></g></svg>